<svg width="16" height="16" viewBox="0 0 16 16" fill="none" xmlns="http://www.w3.org/2000/svg">
<path fill-rule="evenodd" clip-rule="evenodd" d="M3.33388 2H12.6661C13.403 2 14 2.59704 14 3.33388V3.99996V4.66612V8.66608C14 9.0345 13.7007 9.33385 13.3322 9.33385C12.9655 9.33385 12.6661 9.0345 12.6661 8.66608V4.66612H3.33388V12.6661H8.66612C9.03454 12.6661 9.33388 12.9654 9.33388 13.3338C9.33388 13.7006 9.03454 14 8.66612 14H3.33388C2.59704 14 2 13.4029 2 12.6661V4.66612V3.99996V3.33388C2 2.59704 2.59704 2 3.33388 2ZM4.9999 8.00004H5.66602C5.85023 8.00004 5.9999 7.85037 5.9999 7.66616V7.00004C5.9999 6.81583 5.85023 6.66616 5.66602 6.66616H4.9999C4.81569 6.66616 4.66602 6.81583 4.66602 7.00004V7.66616C4.66602 7.85037 4.81569 8.00004 4.9999 8.00004ZM10.6659 8.00004H7.99982C7.6314 8.00004 7.33371 7.70069 7.33371 7.33392C7.33371 6.9655 7.6314 6.66616 7.99982 6.66616H10.6659C11.0344 6.66616 11.3337 6.9655 11.3337 7.33392C11.3337 7.70069 11.0344 8.00004 10.6659 8.00004ZM7.99982 10.6661H10.6659C11.0344 10.6661 11.3337 10.3684 11.3337 9.99996C11.3337 9.63154 11.0344 9.33384 10.6659 9.33384H7.99982C7.6314 9.33384 7.33371 9.63154 7.33371 9.99996C7.33371 10.3684 7.6314 10.6661 7.99982 10.6661ZM5.66602 10.6661H4.9999C4.81569 10.6661 4.66602 10.5181 4.66602 10.3338V9.66608C4.66602 9.48187 4.81569 9.33384 4.9999 9.33384H5.66602C5.85023 9.33384 5.9999 9.48187 5.9999 9.66608V10.3338C5.9999 10.5181 5.85023 10.6661 5.66602 10.6661Z" fill="white"/>
</svg>
