<svg width="16" height="16" fill="none" xmlns="http://www.w3.org/2000/svg"><circle cx="8" cy="8" r="8" fill="#305076"/><path fill-rule="evenodd" clip-rule="evenodd" d="M6 4.8a.8.8 0 01.8-.8h2.4a.8.8 0 01.8.8v.475l1.174-.161c.437-.06.826.28.826.72V7.27c0 .903-.815 1.588-1.705 1.433l-.397-.07A2.004 2.004 0 018.5 9.937V11H10v1H6v-1h1.5V9.937a2.004 2.004 0 01-1.398-1.305l-.397.07A1.455 1.455 0 014 7.269V5.834c0-.44.39-.78.826-.72L6 5.275V4.8zm-1.255.908L6 5.881V8.04l-.398.07A.855.855 0 014.6 7.27V5.834c0-.077.068-.136.145-.126zM10 8v.04l.398.07A.855.855 0 0011.4 7.27V5.834a.127.127 0 00-.145-.126L10 5.881V8z" fill="#fff"/></svg>