<svg width="36" height="36" viewBox="0 0 36 36" fill="none" xmlns="http://www.w3.org/2000/svg">
<g clip-path="url(#clip0_530_419)">
<path d="M36 18C36 8.05887 27.9411 0 18 0C8.05887 0 0 8.05887 0 18C0 27.9411 8.05887 36 18 36C27.9411 36 36 27.9411 36 18Z" fill="#0088CC"/>
<path d="M30.4363 16.7055C29.161 10.8608 27.3628 9.41989 26.268 8.84203C24.5144 7.91657 22.4815 8.45509 21.807 8.80414C21.0413 9.19855 20.5243 9.94944 19.7459 10.2755C18.8464 10.6506 17.6231 10.7523 16.7029 10.2993C15.9698 9.93759 15.3228 9.16512 14.4345 8.82347C13.3085 8.38895 11.4331 7.7799 9.57618 9.11091C9.1372 9.42584 6.00655 12.0507 5.06623 20.2505C4.48616 25.3065 7.25807 26.9331 7.15632 26.8596C7.86937 27.3706 9.46627 28.2344 11.6299 26.8812C13.0761 25.9773 14.2496 24.1917 14.2496 24.1917C14.2496 24.1917 14.7725 23.1986 15.4669 22.7767C15.9586 22.4774 16.6939 22.7047 16.6939 22.7047H19.2958C19.2958 22.7047 20.1218 22.6007 20.7019 22.8569C21.2649 23.1028 21.5827 23.7096 21.5827 23.7096C21.5827 23.7096 23.2977 25.9259 24.9415 27.0557C25.6411 27.5355 28.4532 28.0881 29.9052 26.3144C30.8537 25.1535 31.5006 21.5846 30.4363 16.7055ZM16.5365 16.1878C16.5365 16.632 16.1837 16.9915 15.7484 16.9915H13.7772V19.0036C13.7772 19.4485 13.4244 19.8087 12.9891 19.8087H12.3979C11.9627 19.8087 11.6099 19.4492 11.6099 19.0036V16.9915H9.63782C9.20258 16.9915 8.84976 16.6327 8.84976 16.1878V15.5847C8.84976 15.1398 9.20258 14.7796 9.63782 14.7796H11.6091V12.7697C11.6091 12.3255 11.9619 11.9645 12.3971 11.9645H12.9884C13.4236 11.9645 13.7764 12.3248 13.7764 12.7697V14.7803H15.7477C16.1829 14.7803 16.5357 15.1398 16.5357 15.5854L16.5365 16.1878ZM22.0885 19.0028C21.2723 19.0028 20.6105 18.3284 20.6105 17.4943C20.6105 16.6617 21.2723 15.9865 22.0885 15.9865C22.9048 15.9865 23.5666 16.6609 23.5666 17.4943C23.5673 18.3284 22.9048 19.0028 22.0885 19.0028ZM24.7988 15.6523C23.9914 15.6523 23.3371 14.9846 23.3371 14.1601C23.3371 13.3379 23.9914 12.6701 24.7988 12.6701C25.6062 12.6701 26.2605 13.3379 26.2605 14.1601C26.2605 14.9846 25.6062 15.6523 24.7988 15.6523Z" fill="white"/>
</g>
<defs>
<clipPath id="clip0_530_419">
<rect width="36" height="36" fill="white"/>
</clipPath>
</defs>
</svg>
