<svg width="12" height="12" viewBox="0 0 12 12" fill="none" xmlns="http://www.w3.org/2000/svg">
<path d="M1.20327 2.56481H3.01411C3.16766 3.14847 3.69977 3.58019 4.33092 3.58019C4.96207 3.58019 5.49418 3.14847 5.64773 2.56481H11.3109C11.5021 2.56481 11.6571 2.40983 11.6571 2.21866C11.6571 2.02749 11.5021 1.87251 11.3109 1.87251H5.64768C5.49413 1.28885 4.96202 0.857124 4.33087 0.857124C3.69972 0.857124 3.16762 1.28885 3.01406 1.87251H1.20327C1.0121 1.87251 0.857117 2.02749 0.857117 2.21866C0.857117 2.40983 1.0121 2.56481 1.20327 2.56481ZM4.33092 1.54943C4.69992 1.54943 5.00015 1.84966 5.00015 2.21866C5.00015 2.58766 4.69992 2.88789 4.33092 2.88789C3.96192 2.88789 3.66169 2.58766 3.66169 2.21866C3.66169 1.84966 3.96192 1.54943 4.33092 1.54943Z" fill="#24668C" stroke="#24668C" stroke-width="0.5"/>
<path d="M11.3109 5.65382H9.0037C8.85015 5.07016 8.31804 4.63844 7.68689 4.63844C7.05574 4.63844 6.52363 5.07016 6.37008 5.65382H1.20327C1.0121 5.65382 0.857117 5.8088 0.857117 5.99997C0.857117 6.19114 1.0121 6.34612 1.20327 6.34612H6.37013C6.52368 6.92974 7.05578 7.3615 7.68694 7.3615C8.31809 7.3615 8.85019 6.92974 9.00375 6.34612H11.311C11.5021 6.34612 11.6571 6.19114 11.6571 5.99997C11.6571 5.8088 11.5021 5.65382 11.3109 5.65382ZM7.68694 6.6692C7.31794 6.6692 7.01771 6.36897 7.01771 5.99997C7.01771 5.63097 7.31794 5.33074 7.68694 5.33074C8.05593 5.33074 8.35616 5.63097 8.35616 5.99997C8.35616 6.36897 8.05593 6.6692 7.68694 6.6692Z" fill="#24668C" stroke="#24668C" stroke-width="0.5"/>
<path d="M11.3109 9.43513H5.64768C5.49413 8.85151 4.96202 8.41975 4.33087 8.41975C3.69972 8.41975 3.16762 8.85151 3.01406 9.43513H1.20327C1.0121 9.43513 0.857117 9.59011 0.857117 9.78128C0.857117 9.97245 1.0121 10.1274 1.20327 10.1274H3.01411C3.16766 10.7111 3.69977 11.1428 4.33092 11.1428C4.96207 11.1428 5.49418 10.7111 5.64773 10.1274H11.3109C11.5021 10.1274 11.6571 9.97245 11.6571 9.78128C11.6571 9.59011 11.5021 9.43513 11.3109 9.43513ZM4.33092 10.4505C3.96192 10.4505 3.66169 10.1503 3.66169 9.78128C3.66169 9.41228 3.96192 9.11205 4.33092 9.11205C4.69992 9.11205 5.00015 9.41228 5.00015 9.78128C5.00015 10.1503 4.69992 10.4505 4.33092 10.4505Z" fill="#24668C" stroke="#24668C" stroke-width="0.5"/>
</svg>
