<svg width="36" height="36" viewBox="0 0 36 36" fill="none" xmlns="http://www.w3.org/2000/svg">
<path d="M18 36C27.9411 36 36 27.9411 36 18C36 8.05888 27.9411 0 18 0C8.05887 0 0 8.05888 0 18C0 27.9411 8.05887 36 18 36Z" fill="#0088CC"/>
<path fill-rule="evenodd" clip-rule="evenodd" d="M7.46939 16.7489C13.2072 14.2087 17.0333 12.534 18.9477 11.7249C24.4137 9.41468 25.5494 9.01338 26.2897 9.00013C26.4526 8.99721 26.8166 9.03822 27.0524 9.23266C27.2515 9.39684 27.3063 9.61862 27.3326 9.77428C27.3588 9.92994 27.3914 10.2845 27.3655 10.5616C27.0693 13.7241 25.7876 21.3986 25.1355 24.9406C24.8596 26.4394 24.3164 26.9419 23.7904 26.9911C22.6475 27.0979 21.7795 26.2235 20.6725 25.4861C18.9402 24.3322 17.9615 23.614 16.28 22.488C14.3368 21.1867 15.5965 20.4715 16.704 19.3027C16.9938 18.9968 22.0298 14.3422 22.1273 13.92C22.1395 13.8672 22.1508 13.6703 22.0357 13.5664C21.9206 13.4625 21.7508 13.498 21.6282 13.5263C21.4545 13.5663 18.6871 15.425 13.3261 19.1022C12.5406 19.6503 11.8291 19.9174 11.1916 19.9034C10.4889 19.888 9.13704 19.4996 8.1321 19.1677C6.89949 18.7605 5.91984 18.5453 6.00515 17.8538C6.04958 17.4937 6.53766 17.1254 7.46939 16.7489Z" fill="white"/>
</svg>
