<svg width="36" height="36" viewBox="0 0 36 36" fill="none" xmlns="http://www.w3.org/2000/svg">
<path d="M18 36C27.9411 36 36 27.9411 36 18C36 8.05888 27.9411 0 18 0C8.05887 0 0 8.05888 0 18C0 27.9411 8.05887 36 18 36Z" fill="#4D7198"/>
<path d="M17.8681 23.578C17.8681 23.578 18.2336 23.5384 18.4207 23.3426C18.5921 23.1633 18.5862 22.8247 18.5862 22.8247C18.5862 22.8247 18.5634 21.2439 19.3171 21.0105C20.0599 20.781 21.0137 22.5392 22.0259 23.2153C22.7905 23.7265 23.3709 23.6146 23.3709 23.6146L26.0758 23.578C26.0758 23.578 27.4901 23.4931 26.8196 22.41C26.7641 22.3213 26.4284 21.6085 24.809 20.1444C23.1124 18.6118 23.3402 18.8597 25.3825 16.2083C26.6264 14.5938 27.1236 13.6081 26.9681 13.1866C26.8206 12.7835 25.9054 12.8905 25.9054 12.8905L22.8608 12.9088C22.8608 12.9088 22.635 12.8789 22.4676 12.9764C22.3042 13.0718 22.1982 13.2946 22.1982 13.2946C22.1982 13.2946 21.7169 14.5436 21.0741 15.6065C19.7182 17.848 19.1764 17.9666 18.9546 17.8277C18.4386 17.5027 18.5673 16.5237 18.5673 15.8283C18.5673 13.6554 18.9061 12.7497 17.9087 12.5153C17.5779 12.4372 17.3342 12.3861 16.4874 12.3774C15.4009 12.3668 14.4818 12.3813 13.9609 12.6291C13.6142 12.7941 13.3468 13.1625 13.5102 13.1837C13.7113 13.2098 14.1669 13.3033 14.4085 13.6235C14.7205 14.0373 14.7096 14.9651 14.7096 14.9651C14.7096 14.9651 14.8889 17.5229 14.2907 17.8403C13.8806 18.0582 13.3181 17.6136 12.1087 15.5795C11.4897 14.5379 11.0223 13.3863 11.0223 13.3863C11.0223 13.3863 10.9321 13.1712 10.7707 13.0554C10.5756 12.9156 10.3032 12.8722 10.3032 12.8722L7.41016 12.8905C7.41016 12.8905 6.97536 12.9021 6.8159 13.0863C6.67427 13.2493 6.80501 13.5878 6.80501 13.5878C6.80501 13.5878 9.07012 18.7488 11.6353 21.35C13.9876 23.7342 16.6578 23.578 16.6578 23.578H17.8681Z" fill="white"/>
</svg>
