<svg width="36" height="36" viewBox="0 0 36 36" fill="none" xmlns="http://www.w3.org/2000/svg">
<path d="M18 36C27.9411 36 36 27.9411 36 18C36 8.05888 27.9411 0 18 0C8.05887 0 0 8.05888 0 18C0 27.9411 8.05887 36 18 36Z" fill="#FC0D1B"/>
<path d="M24.3469 17.526H11.6532C9.63551 17.526 8 19.1999 8 21.2622V24.2642C8 26.3268 9.63551 28 11.6532 28H24.3469C26.3642 28 28 26.3268 28 24.2642V21.2622C28 19.1999 26.3641 17.526 24.3469 17.526ZM14.3201 19.8633H13.1402V25.8581H11.9996V19.8633H10.8205V18.8435H14.3201V19.8633ZM17.6536 25.8581H16.6425V25.2909C16.4545 25.5006 16.2606 25.6613 16.0583 25.7689C15.8559 25.8814 15.6609 25.9338 15.4709 25.9338C15.236 25.9338 15.0616 25.8577 14.9421 25.7026C14.8245 25.548 14.7645 25.3189 14.7645 25.009V20.6827H15.7759V24.6529C15.7759 24.7755 15.7983 24.8633 15.8384 24.9181C15.8821 24.9741 15.9515 25.0003 16.0467 25.0003C16.12 25.0003 16.2144 24.9642 16.3282 24.8916C16.4429 24.8186 16.5472 24.7268 16.6424 24.6134V20.6826H17.6534L17.6536 25.8581ZM21.325 24.7895C21.325 25.155 21.2459 25.4363 21.0873 25.6323C20.9294 25.8279 20.6984 25.9246 20.3998 25.9246C20.2006 25.9246 20.0237 25.8878 19.87 25.8118C19.7155 25.7371 19.57 25.6214 19.4372 25.4612V25.8577H18.4137V18.8435H19.4372V21.1026C19.5743 20.9464 19.7191 20.8252 19.8705 20.7437C20.025 20.6611 20.1802 20.6206 20.3375 20.6206C20.6578 20.6206 20.9014 20.7302 21.0704 20.9504C21.2399 21.1711 21.3245 21.4944 21.3245 21.9177L21.325 24.7895ZM24.8335 23.395H22.8982V24.3701C22.8982 24.6419 22.9308 24.8314 22.997 24.9368C23.0647 25.0429 23.1781 25.0945 23.3403 25.0945C23.5085 25.0945 23.6246 25.0498 23.6923 24.9605C23.7573 24.8704 23.7922 24.6749 23.7922 24.3701V24.1346H24.8337V24.4003C24.8337 24.9305 24.7073 25.3305 24.4517 25.5998C24.2002 25.8668 23.8208 25.9997 23.317 25.9997C22.8632 25.9997 22.5057 25.8584 22.2459 25.5744C21.9869 25.2913 21.8548 24.8994 21.8548 24.4005V22.0757C21.8548 21.6284 21.9994 21.2606 22.2859 20.9783C22.572 20.696 22.9397 20.5552 23.3929 20.5552C23.8565 20.5552 24.2123 20.6855 24.4609 20.9472C24.7092 21.2093 24.8339 21.5848 24.8339 22.0754L24.8335 23.395Z" fill="white"/>
<path d="M23.3495 21.4598C23.1881 21.4598 23.0731 21.5058 23.0033 21.6029C22.9316 21.6935 22.898 21.8493 22.898 22.0669V22.5897H23.7918V22.0669C23.7918 21.8493 23.7557 21.6934 23.6851 21.6029C23.6173 21.5063 23.5036 21.4598 23.3495 21.4598Z" fill="white"/>
<path d="M19.8607 21.4423C19.7892 21.4423 19.7164 21.4584 19.6467 21.4922C19.5757 21.5247 19.5065 21.5798 19.438 21.6508V24.8745C19.5194 24.958 19.5997 25.0223 19.6778 25.0586C19.7556 25.0942 19.8366 25.1141 19.9227 25.1141C20.0468 25.1141 20.1371 25.0774 20.1958 25.0033C20.2529 24.9297 20.2827 24.8129 20.2827 24.647V21.9743C20.2827 21.7985 20.2484 21.6669 20.1767 21.576C20.1018 21.4873 19.9967 21.4423 19.8607 21.4423Z" fill="white"/>
<path d="M13.3153 15.7285H14.5973V12.5223L16.0902 8H14.7868L13.9935 11.0892H13.9128L13.0796 8H11.7882L13.3153 12.6669V15.7285Z" fill="white"/>
<path d="M17.8272 15.8722C18.3454 15.8722 18.7515 15.7332 19.0473 15.4557C19.3416 15.1767 19.4886 14.7961 19.4886 14.3084V11.3632C19.4886 10.9296 19.338 10.5721 19.0388 10.2965C18.7369 10.0218 18.3503 9.8832 17.8788 9.8832C17.3612 9.8832 16.949 10.0145 16.6424 10.2758C16.3366 10.5372 16.1828 10.8876 16.1828 11.3311V14.286C16.1828 14.7709 16.3322 15.1543 16.6312 15.4418C16.9301 15.7285 17.3294 15.8722 17.8272 15.8722ZM17.3553 11.2874C17.3553 11.1637 17.3986 11.0635 17.4838 10.9854C17.5722 10.9084 17.6846 10.8713 17.8238 10.8713C17.9744 10.8713 18.0962 10.9084 18.1894 10.9854C18.2818 11.0635 18.328 11.1637 18.328 11.2874V14.3937C18.328 14.546 18.2826 14.6669 18.1911 14.7541C18.0998 14.8416 17.9774 14.8843 17.8238 14.8843C17.6732 14.8843 17.5574 14.8429 17.4759 14.7553C17.3954 14.6699 17.3547 14.5497 17.3547 14.3933L17.3553 11.2874Z" fill="white"/>
<path d="M21.208 15.8118C21.4224 15.8118 21.6424 15.7494 21.8684 15.6291C22.0974 15.5074 22.3164 15.3295 22.5247 15.097V15.7289H23.6637V10.0278H22.5247V14.3552C22.4186 14.4791 22.3008 14.5806 22.1739 14.6613C22.0453 14.7415 21.9391 14.7814 21.8559 14.7814C21.7488 14.7814 21.6704 14.7518 21.6245 14.6895C21.5773 14.6301 21.5512 14.5323 21.5512 14.3984V10.0278H20.4136V14.7925C20.4136 15.1321 20.4805 15.3861 20.6125 15.5546C20.7468 15.7257 20.9437 15.8118 21.208 15.8118Z" fill="white"/>
</svg>
