<svg
	aria-labelledby="loading-aria"
	role="img"
	width="146"
	height="22"
	viewBox="0 0 146 22"
>
	<title id="loading-aria">Loading...</title>
	<rect
		role="presentation"
		x="0"
		y="0"
		width="100%"
		height="100%"
		clip-path="url(#clip-path)"
		style="fill: url('#fill')"
	></rect>
	<defs>
		<clipPath id="clip-path">
			<path
				id="M"
				d="M 14.79 21.21 L 17.61 21.21 Q 17.889 21.21 18.32 20.973 A 4.088 4.088 0 0 0 18.48 20.88 Q 19.02 20.55 19.47 20.1 L 28.68 8.55 L 28.86 8.445 A 2.305 2.305 0 0 1 28.923 8.409 Q 29.023 8.355 29.074 8.343 A 0.116 0.116 0 0 1 29.1 8.34 L 29.28 8.34 A 2.056 2.056 0 0 1 29.364 8.342 Q 29.495 8.347 29.553 8.371 A 0.118 0.118 0 0 1 29.58 8.385 Q 29.636 8.427 29.587 8.562 A 0.663 0.663 0 0 1 29.58 8.58 L 25.95 21.21 L 32.43 21.21 L 37.92 2.1 A 1.248 1.248 0 0 0 37.975 1.787 Q 37.985 1.558 37.905 1.335 Q 37.77 0.96 37.455 0.69 Q 37.154 0.432 36.69 0.27 A 3.418 3.418 0 0 0 36.645 0.255 A 3.206 3.206 0 0 0 35.951 0.11 A 3.997 3.997 0 0 0 35.55 0.09 L 29.43 0.09 A 0.982 0.982 0 0 0 29.183 0.125 Q 28.887 0.203 28.485 0.45 A 7.347 7.347 0 0 0 27.941 0.818 A 5.593 5.593 0 0 0 27.48 1.2 L 19.89 11.1 Q 19.26 11.82 19.02 11.82 A 0.349 0.349 0 0 1 18.888 11.796 Q 18.801 11.761 18.746 11.673 A 0.432 0.432 0 0 1 18.72 11.625 Q 18.63 11.43 18.57 11.1 L 16.41 1.2 Q 16.23 0.81 15.855 0.45 A 1.726 1.726 0 0 0 15.628 0.264 Q 15.496 0.175 15.366 0.131 A 0.772 0.772 0 0 0 15.12 0.09 L 9 0.09 Q 7.77 0.09 6.75 0.69 A 3.89 3.89 0 0 0 6.189 1.086 Q 5.655 1.543 5.49 2.1 L 0 21.21 L 6.48 21.21 L 10.11 8.58 A 1.058 1.058 0 0 1 10.14 8.512 Q 10.185 8.419 10.23 8.385 Q 10.282 8.346 10.471 8.341 A 2.205 2.205 0 0 1 10.53 8.34 L 10.71 8.34 Q 10.797 8.34 10.897 8.437 A 0.671 0.671 0 0 1 10.905 8.445 L 11.01 8.55 L 13.62 20.1 Q 13.8 20.55 14.13 20.88 A 1.488 1.488 0 0 0 14.331 21.05 Q 14.561 21.21 14.79 21.21 Z"
			></path>
			<path
				id="A"
				d="M 62.927 0.102 H 44.083 l-1.717 5.283 h 13.208 L 38.535 16.832 c-1.320 0.880 -1.540 2.685 -0.528 3.874 c 0.880 1.056 2.377 1.232 3.522 0.484 l 17.171 -11.535 L 54.913 21.235 h 6.0318 l 5.371 -16.510 C 67.021 2.435 65.348 0.102 62.927 0.102 Z"
			></path>
			<path
				id="T"
				d="M 76.92 4.92 L 72.24 21.21 L 78.75 21.21 L 83.43 4.92 L 91.86 4.92 A 22.906 22.906 0 0 0 91.196 2.825 A 20.41 20.41 0 0 0 91.02 2.37 A 8.785 8.785 0 0 0 89.856 0.328 A 9.973 9.973 0 0 0 89.67 0.09 L 73.44 0.09 Q 72.09 1.05 70.86 2.22 A 20.038 20.038 0 0 0 69.211 3.999 A 23.933 23.933 0 0 0 68.49 4.92 L 76.92 4.92 Z"
			></path>
			<path
				id="C"
				d="M 102.3 4.92 L 117.12 4.92 Q 116.73 3.66 116.205 2.505 A 19.49 19.49 0 0 0 115.534 1.172 A 24.603 24.603 0 0 0 114.9 0.09 L 100.86 0.09 A 5.619 5.619 0 0 0 99.632 0.232 A 7.075 7.075 0 0 0 98.91 0.435 Q 97.89 0.78 96.99 1.335 A 7.429 7.429 0 0 0 95.511 2.523 A 6.943 6.943 0 0 0 95.415 2.625 A 4.472 4.472 0 0 0 94.915 3.274 A 3.198 3.198 0 0 0 94.53 4.14 L 90.81 17.16 Q 90.694 17.538 90.694 17.906 A 2.332 2.332 0 0 0 90.825 18.675 Q 91.08 19.41 91.65 19.98 A 3.967 3.967 0 0 0 92.72 20.736 A 4.736 4.736 0 0 0 93.045 20.88 Q 93.87 21.21 94.8 21.21 L 108.87 21.21 A 30.254 30.254 0 0 0 110.968 19.466 A 26.376 26.376 0 0 0 111.6 18.87 A 23.363 23.363 0 0 0 113.758 16.461 A 21.608 21.608 0 0 0 113.82 16.38 L 99.12 16.38 A 0.848 0.848 0 0 1 99.013 16.351 Q 98.904 16.313 98.765 16.241 A 2.862 2.862 0 0 1 98.745 16.23 A 3.61 3.61 0 0 1 98.408 16.025 A 4.141 4.141 0 0 1 98.295 15.945 A 1.516 1.516 0 0 1 98.052 15.724 A 1.29 1.29 0 0 1 97.935 15.57 Q 97.805 15.368 97.856 15.138 A 0.661 0.661 0 0 1 97.86 15.12 L 100.44 6.18 A 0.716 0.716 0 0 1 100.526 5.993 Q 100.575 5.917 100.645 5.84 A 1.504 1.504 0 0 1 100.725 5.76 A 2.762 2.762 0 0 1 101.165 5.427 A 3.091 3.091 0 0 1 101.235 5.385 Q 101.52 5.22 101.82 5.1 A 15.965 15.965 0 0 1 101.962 5.044 Q 102.165 4.965 102.3 4.92 Z "
			></path>
			<path
				id="H"
				d="M 145.44 0.09 L 138.96 0.09 L 136.62 8.22 L 125.1 8.22 L 127.44 0.09 L 120.96 0.09 L 114.9 21.21 L 121.38 21.21 L 123.72 13.05 L 135.24 13.05 L 132.9 21.21 L 139.38 21.21 L 145.44 0.09 Z "
			></path>
		</clipPath>
		<linearGradient id="fill">
			<stop
				offset="0%"
				stop-color="#e8eaec"
				stop-opacity="1"
			>
				<animate
					attributeName="offset"
					values="-2; -2; 1"
					keyTimes="0; 0.25; 1"
					dur="2s"
					repeatCount="indefinite"
				></animate>
			</stop>
			<stop
				offset="50%"
				stop-color="#d8dadf"
				stop-opacity="1"
			>
				<animate
					attributeName="offset"
					values="-1; -1; 2"
					keyTimes="0; 0.25; 1"
					dur="2s"
					repeatCount="indefinite"
				></animate>
			</stop>
			<stop
				offset="100%"
				stop-color="#e8eaec"
				stop-opacity="1"
			>
				<animate
					attributeName="offset"
					values="0; 0; 3"
					keyTimes="0; 0.25; 1"
					dur="2s"
					repeatCount="indefinite"
				></animate>
			</stop>
		</linearGradient>
	</defs>
</svg>
